<svg width="68" height="68" viewBox="0 0 68 68" fill="none" xmlns="http://www.w3.org/2000/svg">
<rect width="68" height="68" rx="20" transform="matrix(1 0 0 -1 0 68)" fill="#BE49E8" fill-opacity="0.25"/>
<path d="M53.437 54C36.0718 54 21.7884 40.6408 20.2748 23.6634C23.1602 27.7327 26.6948 31.6482 31.1074 36.1496C31.4354 36.4879 31.9787 36.4947 32.3152 36.1616C32.6518 35.8319 32.6569 35.2903 32.3272 34.9537C31.6626 34.2772 30.9878 33.5751 30.3096 32.8644C29.9218 32.4595 29.5425 32.0564 29.1702 31.66C29.1018 31.5866 29.0335 31.5131 28.9652 31.438C23.5122 25.5989 19.6137 20.5167 16.7829 14.2044C16.5899 13.7739 16.7829 13.2682 17.2118 13.0752C17.3262 13.0239 17.4441 13 17.5619 13C17.8883 13 18.2009 13.1879 18.3426 13.5039C19.3506 15.7504 20.5208 17.8346 21.8362 19.8624C33.7672 20.1682 44.6271 26.8051 50.3193 37.3659C50.4611 37.6307 50.4542 37.9502 50.3004 38.2099C50.145 38.4661 49.8665 38.625 49.5659 38.625H46.4021L52.0755 41.8674C52.2548 41.9699 52.3932 42.1356 52.4598 42.3304C53.6761 45.8666 54.2911 49.5054 54.2911 53.1458C54.2911 53.6173 53.9085 54 53.437 54Z" fill="#BE49E8"/>
</svg>
