<svg width="298" height="51" viewBox="0 0 298 51" fill="none" xmlns="http://www.w3.org/2000/svg">
<rect y="4" width="43" height="43" rx="18" fill="url(#paint0_linear_97:285)"/>
<path fill-rule="evenodd" clip-rule="evenodd" d="M14.3959 40.8917C14.0973 40.6827 13.9995 40.2851 14.167 39.9615L19.8144 29.0518C19.999 28.695 20.4379 28.5556 20.7946 28.7402C21.1514 28.9249 21.2909 29.3637 21.1062 29.7205L17.9593 35.7998L28.0544 24.8217L20.333 23.4494C19.9375 23.3792 19.6739 23.0016 19.7442 22.6061C19.8145 22.2106 20.1921 21.947 20.5876 22.0173L29.6148 23.6216C29.8763 23.6681 30.0916 23.8534 30.1766 24.105C30.2616 24.3566 30.2026 24.6345 30.0229 24.83L15.3483 40.7881C15.1016 41.0564 14.6945 41.1006 14.3959 40.8917Z" fill="white"/>
<path fill-rule="evenodd" clip-rule="evenodd" d="M29.8189 9.13144C30.1175 9.34038 30.2154 9.73804 30.0478 10.0617L24.4005 20.9714C24.2158 21.3281 23.7769 21.4676 23.4202 21.2829C23.0635 21.0983 22.924 20.6594 23.1087 20.3027L26.2556 14.2233L16.1605 25.2014L23.8818 26.5737C24.2773 26.644 24.5409 27.0216 24.4706 27.417C24.4004 27.8125 24.0228 28.0762 23.6273 28.0059L14.6001 26.4015C14.3386 26.355 14.1232 26.1697 14.0382 25.9181C13.9533 25.6665 14.0122 25.3886 14.192 25.1931L28.8666 9.23502C29.1132 8.96677 29.5203 8.92249 29.8189 9.13144Z" fill="white"/>
<path d="M70.7148 12.1172H75.0215V29.5659C75.0215 31.9471 74.2752 33.8384 72.7827 35.2397C71.3016 36.6411 69.342 37.3418 66.9038 37.3418C64.3062 37.3418 62.3009 36.6867 60.8882 35.3765C59.4754 34.0662 58.769 32.2433 58.769 29.9077H63.0757C63.0757 31.2293 63.4004 32.2262 64.0498 32.8984C64.7106 33.5592 65.6619 33.8896 66.9038 33.8896C68.0659 33.8896 68.9888 33.508 69.6724 32.7446C70.3674 31.9699 70.7148 30.9046 70.7148 29.5488V12.1172ZM90.7783 35.1885C89.5592 36.624 87.8275 37.3418 85.583 37.3418C83.5778 37.3418 82.0568 36.755 81.02 35.5815C79.9946 34.408 79.4819 32.7104 79.4819 30.4888V18.5088H83.6348V30.4375C83.6348 32.7845 84.6089 33.958 86.5571 33.958C88.5737 33.958 89.9352 33.2345 90.6416 31.7876V18.5088H94.7944V37H90.8809L90.7783 35.1885ZM102.878 18.5088L102.998 20.645C104.365 18.993 106.159 18.167 108.381 18.167C112.232 18.167 114.191 20.3716 114.26 24.7808V37H110.107V25.02C110.107 23.8465 109.851 22.9806 109.338 22.4224C108.837 21.8527 108.011 21.5679 106.86 21.5679C105.185 21.5679 103.938 22.3255 103.117 23.8408V37H98.9644V18.5088H102.878ZM122.924 37H118.771V18.5088H122.924V37ZM118.515 13.7065C118.515 13.0685 118.715 12.5387 119.113 12.1172C119.523 11.6956 120.104 11.4849 120.856 11.4849C121.608 11.4849 122.189 11.6956 122.6 12.1172C123.01 12.5387 123.215 13.0685 123.215 13.7065C123.215 14.3332 123.01 14.8573 122.6 15.2788C122.189 15.689 121.608 15.894 120.856 15.894C120.104 15.894 119.523 15.689 119.113 15.2788C118.715 14.8573 118.515 14.3332 118.515 13.7065ZM126.684 27.5835C126.684 25.772 127.043 24.1427 127.761 22.6958C128.479 21.2375 129.487 20.1209 130.786 19.3462C132.084 18.5601 133.577 18.167 135.263 18.167C137.758 18.167 139.781 18.9702 141.33 20.5767C142.891 22.1831 143.734 24.3136 143.859 26.9683L143.876 27.9424C143.876 29.7653 143.523 31.3945 142.817 32.8301C142.122 34.2656 141.119 35.3765 139.809 36.1626C138.51 36.9487 137.006 37.3418 135.297 37.3418C132.688 37.3418 130.598 36.4759 129.025 34.7441C127.465 33.001 126.684 30.6825 126.684 27.7886V27.5835ZM130.837 27.9424C130.837 29.8451 131.23 31.3376 132.016 32.4199C132.802 33.4909 133.896 34.0264 135.297 34.0264C136.699 34.0264 137.787 33.4795 138.562 32.3857C139.348 31.292 139.741 29.6912 139.741 27.5835C139.741 25.715 139.336 24.2339 138.527 23.1401C137.73 22.0464 136.642 21.4995 135.263 21.4995C133.907 21.4995 132.831 22.0407 132.033 23.123C131.236 24.194 130.837 25.8005 130.837 27.9424ZM157.07 22.3027C156.523 22.2116 155.959 22.166 155.378 22.166C153.475 22.166 152.194 22.8952 151.533 24.3535V37H147.38V18.5088H151.345L151.447 20.5767C152.45 18.9702 153.84 18.167 155.617 18.167C156.21 18.167 156.7 18.2467 157.087 18.4062L157.07 22.3027ZM185.764 15.6035H178.005V37H173.715V15.6035H166.025V12.1172H185.764V15.6035ZM195.249 37.3418C192.617 37.3418 190.48 36.5158 188.84 34.8638C187.211 33.2004 186.396 30.9901 186.396 28.2329V27.7202C186.396 25.8745 186.749 24.2282 187.456 22.7812C188.173 21.3229 189.176 20.1893 190.463 19.3804C191.751 18.5715 193.186 18.167 194.77 18.167C197.288 18.167 199.23 18.9702 200.598 20.5767C201.976 22.1831 202.666 24.4561 202.666 27.3955V29.0703H190.583C190.708 30.597 191.215 31.8047 192.104 32.6934C193.004 33.582 194.132 34.0264 195.488 34.0264C197.39 34.0264 198.94 33.2573 200.136 31.7192L202.375 33.8555C201.634 34.9606 200.643 35.8208 199.401 36.436C198.171 37.0399 196.787 37.3418 195.249 37.3418ZM194.753 21.4995C193.614 21.4995 192.691 21.8983 191.984 22.6958C191.289 23.4933 190.845 24.6042 190.651 26.0283H198.564V25.7207C198.473 24.3307 198.103 23.2826 197.453 22.5762C196.804 21.8584 195.904 21.4995 194.753 21.4995ZM216.953 37C216.77 36.6468 216.611 36.0715 216.474 35.2739C215.153 36.6525 213.535 37.3418 211.621 37.3418C209.764 37.3418 208.248 36.812 207.075 35.7524C205.901 34.6929 205.314 33.3826 205.314 31.8218C205.314 29.8507 206.044 28.3411 207.502 27.293C208.972 26.2334 211.068 25.7036 213.791 25.7036H216.337V24.4902C216.337 23.5332 216.07 22.7699 215.534 22.2002C214.999 21.6191 214.184 21.3286 213.09 21.3286C212.145 21.3286 211.37 21.5679 210.766 22.0464C210.162 22.5135 209.86 23.1117 209.86 23.8408H205.708C205.708 22.8268 206.044 21.8812 206.716 21.0039C207.388 20.1152 208.299 19.4202 209.45 18.9189C210.612 18.4176 211.905 18.167 213.33 18.167C215.494 18.167 217.22 18.7139 218.508 19.8076C219.795 20.89 220.456 22.4167 220.49 24.3877V32.7275C220.49 34.391 220.724 35.7183 221.191 36.7095V37H216.953ZM212.39 34.0093C213.21 34.0093 213.979 33.8099 214.697 33.4111C215.426 33.0124 215.973 32.4769 216.337 31.8047V28.3184H214.099C212.561 28.3184 211.404 28.5861 210.629 29.1216C209.855 29.6571 209.467 30.4147 209.467 31.3945C209.467 32.1921 209.729 32.8301 210.253 33.3086C210.789 33.7757 211.501 34.0093 212.39 34.0093ZM228.745 18.5088L228.864 20.4399C230.163 18.9246 231.94 18.167 234.196 18.167C236.669 18.167 238.361 19.1126 239.272 21.0039C240.616 19.1126 242.508 18.167 244.946 18.167C246.985 18.167 248.5 18.731 249.492 19.8589C250.494 20.9868 251.007 22.6502 251.03 24.8491V37H246.877V24.9688C246.877 23.7952 246.621 22.9351 246.108 22.3882C245.595 21.8413 244.746 21.5679 243.562 21.5679C242.616 21.5679 241.841 21.8242 241.237 22.3369C240.645 22.8382 240.229 23.499 239.99 24.3193L240.007 37H235.854V24.832C235.797 22.6559 234.686 21.5679 232.521 21.5679C230.858 21.5679 229.679 22.2458 228.984 23.6016V37H224.831V18.5088H228.745Z" fill="#F97D26"/>
<defs>
<linearGradient id="paint0_linear_97:285" x1="0" y1="4" x2="43" y2="47" gradientUnits="userSpaceOnUse">
<stop stop-color="#F7B733"/>
<stop offset="0.377834" stop-color="#F8982C"/>
<stop offset="1" stop-color="#FC4A1A"/>
</linearGradient>
</defs>
</svg>
